<svg xmlns="http://www.w3.org/2000/svg" width="96" height="96" viewBox="0 0 96 96" version="1.1"><path d="M 32.681 14.653 C 32.306 15.027, 32 23.103, 32 32.599 L 32 49.866 45.149 43.933 C 52.381 40.670, 59.376 38, 60.694 38 C 63.810 38, 68 42.229, 68 45.373 C 68 49.337, 67.018 50.895, 62.200 54.573 L 57.653 58.045 76.576 57.773 L 95.500 57.500 95.500 36 L 95.500 14.500 64.431 14.236 C 47.343 14.091, 33.055 14.278, 32.681 14.653" stroke="none" fill="#2ab1e9" fill-rule="evenodd"/><path d="M 9.643 27.668 L 0 35.336 -0 56.758 L -0 78.179 15.250 77.823 C 33.041 77.407, 33.155 77.365, 48.038 65.863 C 66.306 51.746, 68 50.063, 68 46.031 C 68 42.244, 64.140 38, 60.694 38 C 59.376 38, 52.381 40.670, 45.149 43.933 L 32 49.866 32 34.933 L 32 20 25.643 20 L 19.286 20 9.643 27.668" stroke="none" fill="#f7c340" fill-rule="evenodd"/></svg>