<?xml version="1.0" encoding="utf-8"?><svg viewBox="0 0 375 288" xmlns="http://www.w3.org/2000/svg" xmlns:xlink="http://www.w3.org/1999/xlink"><style>:root>svg{display:none}:root>svg:target{display:block}</style><svg fill="none" viewBox="0 0 375 288" id="1" xmlns="http://www.w3.org/2000/svg"><path fill-rule="evenodd" clip-rule="evenodd" d="M94.55 172.924c1.909-1.294 5.813-5.927 7.858-6.998 4.549-2.381 24.813-7.061 25.472-7.338 1.003-.421 7.522-1.892 11.32-2.822 8.919-2.183 40.88-16.286 49.305-19.902 1.075 2.815 9.953 15.242 8.43 16.515-5.014 4.193-14.002 9.414-19.811 12.418-4.698 2.43-9.674 4.441-14.697 6.083-5.704 1.865-9.618 3.864-15.303 5.771-5.592 1.876 1.092 7.745 3.964 8.957 3.221 1.361 8.21 2.051 11.502 3.23-5.795 8.959-10.662 19.833-11.636 30.565-.234 2.582-2.213 4.95-5.433 4.177-1.661-.399-16.99-2.43-19.489-2.997-16.686-3.785-46.641-23.607-38.927-43.932 1.767.812 5.801-2.613 7.444-3.727Z" fill="#FF7A00"/><path fill-rule="evenodd" clip-rule="evenodd" d="M103.884 65.085c1.247-.105 4.47-2.582 2.778-3.834-1.706-1.264-2.932 2.971-2.778 3.834Zm-64.934 9.5c.326-.058.183-1.832-.33-2.058-1.619-.715-1.755 1.972-1.795 2.692-.05.907-.164 3.464 1.805 2.763 1.118-.398.424-2.718.32-3.398Zm95.592 8.285c-.044 1.584 3.172 4.628 4.37 2.802 1.009-1.534-4.287-5.953-4.37-2.802ZM20.856 47.164c.932 2.364 5.54-.858 5.71-2.592.352-3.551-5.758.23-5.71 2.592Zm38.44 10.192c2.146-.175 4.97-2.889 7.039-3.903 1.4-.686 5.21-1.503 5.624-3.06.36-1.354-6.104 1.543-6.656 1.8-2.536 1.182-4.822 2.529-6.007 5.163Zm161.082-18.712c1.71-1.315 3.789-2.164 5.981-2.108 1.095.027 3.379.709 3.465-1.175.14-3.062-9.529.673-11.04 1.274l1.594 2.01ZM113.686 157.988c-1.255-2.073-3.512-3.271-5.209-5.039.622 2.903-.78 5.486-1.743 8.136l6.952-3.097Zm217.887 44.181c.691-2.301 1.383-4.59 2.192-6.857.905-2.538 1.354-2.758-.811-4.532l-5.391 10.136c1.279.541 2.614 1.067 4.01 1.253Zm-185.99-166.63c-2.379-2.668-13.53-2.836-12.15 3.052.481 2.056 3.223-.128 4.94-.608 1.705-.475 6.531-.538 7.21-2.445Zm-.409 37.769c-.288-.681-.864-3.139-1.719-3.332-.832-.189-4.118 2.389-4.735 2.782-3.081 1.963-6.084 4.076-9.086 6.157 1.15 0 2.194-.407 3.336-.416 1.358-.011 2.331.544 3.655.227 2.844-.68 6.145-3.814 8.549-5.418Zm3.082-60.873c.267-1.22 14.209 2.443 15.885 3.114.912.365 5.623 2.8 4.61-.87-.576-2.091-6.018-3.685-7.763-4.258-4.434-1.455-9.109-2.49-13.83-2.25-.917.046-7.86.444-4.961 3.22.999.956 4.58.655 6.059 1.044Zm3.052 167.652c2.598 1.271 5.25 2.243 7.965 3.237 1.206.442 3.085 1.598 4.415 1.308 1.09-.239 1.439-1.889 2.012-2.994 2.093-4.043 4.592-7.304 7.691-10.637-1.439-1.044-8.743 3.561-10.551 4.241a79.043 79.043 0 0 0-5.288 2.179c-1.667.765-4.957 1.45-6.244 2.666Zm45.992-34.46c3.785-1.704 7.373-4.725 10.478-7.431 3.565-3.106 6.761-6.362 9.37-10.381-1.57.079-5.037 5.104-5.076-.366-.02-2.791 3.824-5.54 5.018-8.128-2.969-1.667-5.689 8.294-9.095 5.879-3.281-2.326 1.896-10.325 2.893-12.848-1.924-1.274-12.889 12.982-14.476 14.806-.992 1.142-3.34 2.662-3.9 3.994-.334.793-.381 3.309-.22 4.038.336 1.525 2.037 3.352 2.794 4.772.959 1.798 1.793 3.666 2.214 5.665Zm156.499 51.398c-3.274-4.597.108-6.601 2.769-10.416 2.129-3.052 4.088-6.415 5.437-9.823 3.375-8.524 6.421-16.448 8.088-25.464-2.294 1.042-3.728 5.006-4.876 7.095-1.543 2.808-2.901 5.756-4.616 8.477-3.209 5.091-6.36 10.522-10.442 14.935-1.85 2-3.416 4.25-5.55 6.052-.975.824-2.84 1.499-3.559 2.529-.678.972.081 1.593-.177 2.754-.264 1.191-1.475 2.461-1.995 3.608-.683 1.506-1.318 3.016-2.08 4.489-.831 1.606-1.058 2.446-1.282 4.016-.245 1.716.506 1.895-1.001 3.476l8.192 3.593 2.765 1.213.583-1.087c.75-.724 1.44-2.512 1.869-3.47 1.795-3.996 3.821-8.009 5.875-11.977Zm-263.7-19.295c-7.755 20.306 19.493 37.404 36.265 41.185 2.324.524 4.591 1.209 6.903 1.772 2.522.613 4.761.49 7.278.747 2.002.204 2.957 1.743 4.843 2.167 3.153.709 2.961-1.649 3.187-4.174.957-10.708 6.451-21.04 12.266-29.975-2.656-.946-5.288-1.977-7.91-3.012-2.244-.886-5.68-3.377-8.092-3.508-1.784-.097-4.503 1.418-6.235 2.083-2.886 1.108-5.78 2.051-8.787 2.807-5.259 1.32-11.111 3.121-16.553 3.257-1.569.04-5.873.766-7.002-.198-2.152-1.839.836-3.372 2.638-4.028 10.741-3.913 22.145-5.576 32.916-9.587 5.543-2.065 11.028-4.37 16.606-6.404 4.808-1.753 9.844-3.305 14.49-5.461 6.136-2.847 12.298-6.393 17.612-10.571 1.064-.836 3.292-2.078 4.021-3.289.642-1.067.561-.003.428-1.296-.096-.929-1.238-2.188-1.708-3.065-1.751-3.272-3.334-6.633-4.664-10.095-8.476 3.616-16.539 8.538-24.89 12.402-8.406 3.891-17.887 6.635-26.879 8.823-3.828.932-8.227 1.226-11.737 3.067-1.492.782-2.966 1.686-4.563 2.139-.472.9-.936 1.076-1.394.529-.287-.32-.657-.455-1.112-.406-.977.165-1.973.624-2.887.977-4.625 1.783-9.053 4.016-13.444 6.295-2.08 1.079-4.215 2.142-6.207 3.375-1.067.661-2.024 1.328-2.897 2.235-1.048 1.088-.798 1.983-2.493 1.209ZM264.576 57.165c1.96.032 3.746-1.024 5.789-.965 3.213.092 5.757 2.57 7.622 4.96 3.69 4.728 2.749 10.432.895 15.724a30.526 30.526 0 0 1-3.626 7.17c-1.347 1.96-3.755 3.814-4.695 5.996-1.551 3.599 1.577 2.069 3.493 1.3 2.408-.967 4.665-2.17 6.709-3.789 9.11-7.217 16.04-17.248 18.362-28.77 1.132-5.62 1.045-12.191-2.891-16.779-3.599-4.195-9.811-5.565-15.122-4.788-5.74.842-10.943 3.26-15.617 6.373-1.358.905-2.601 1.893-3.875 2.904-1.673 1.328-2.675 1.362-2.257 3.443.311 1.546 1.158 3.149 1.703 4.633 1.022 2.78.649 3.498 3.51 2.588Zm6.248 47.919-.397.674c2.733.129 5.279-2.269 7.608-3.44 3.025-1.522 5.712-3.597 8.363-5.694 4.675-3.697 9.411-7.863 12.891-12.717 7.801-10.88 14.887-24.675 12.758-38.47-2.294-14.867-15.367-20.59-29.297-18.622-6.277.887-11.882 3.675-17.5 6.506-2.832 1.426-5.222 3.277-7.816 5.069-1.346.93-2.575 1.051-2.663 2.677-.066 1.226 2.064 3.998 2.64 5.108 7.054-7.157 14.656-13.079 25.308-13.445 12.673-.435 20.167 11.518 20.112 22.963-.055 11.225-4.922 22.023-12.681 30.09-3.526 3.667-6.888 6.608-11.217 9.284-2.159 1.334-3.751 2.532-6.164 3.417-1.707.627-1.529.297-1.965 1.869-.37 1.333.008 3.346.02 4.731ZM201.962 257.59c-.165 2.022-.578 4.014-1.038 5.987-.165.709-1.095 2.945-.932 3.742.269 1.317-.089.47 1.07 1.157 1.21.717 2.618.674 3.943.891.817.135 3.813 1.537 4.317 1.316.881-.387.853-1.752 1.819-2.293 1.317-.738 3.257-.106 4.499.471 3.321 1.54 5.603 4.73 8.816 6.476 5.706 3.1 12.478 4.816 18.844 5.524 3.449.384 6.978 1.057 10.384.253 2.683-.633 6.171-.575 7.63-3.439-12.964-3.546-32.751-7.886-37.877-22.685-2.786 2.513-7.443 1.16-10.81.813-3.705-.382-7.015-.293-10.403-1.972a15.284 15.284 0 0 0-.262 3.759ZM87.18 165.935c6.103.366 11.888-2.506 15.644-7.353.924-1.194 1.872-2.412 2.427-3.827l.361-1.075c.583-.99.327-1.457-.765-1.401-.615-.84-2.176-1.122-1.732-2.644.334-1.148 1.568-1.167 2.64-1.528-.534-.892-.853-1.34-1.617-2.134-1.987 1.778-5.591 5.266-6.987 1.183-.67-1.96.51-3.834.217-5.725-.12-.782-1.117-2.78-1.695-3.247-3.076-2.492-7.507-1.46-10.771.006-2.25 1.011-2.734 1.485-3.1 3.802-.373 2.356-.72 4.711-1.133 7.061 1.35-.7 1.596-2.212 2.476-3.3l.99 1.792c.465-.259.9-.246 1.302.042.651.996.241 2.473.041 3.517 2.172-.201 3.09 2.21.9 3.186-2.268 1.011-3.291-1.746-3.368-3.532-.847 1.006-1.716.468-2.306.984-.59.517-.822 1.594-1.031 2.773-.345 1.937-1.227 4.733-.41 6.676 1.21 2.887 5.074 4.389 7.917 4.744ZM264.017 73.21c-2.019 2.794-5.461 6.45-6.182 9.825 2.225-1.298 6.927-7.545 8.138-2.57.696 2.857-2.871 6.26-3.747 9.026 3.507-1.147 6.006-4.742 8.194-7.517 2.791-3.538 5.64-8.201 6.352-12.7.576-3.64-1.962-7.033-5.734-7.39-1.927-.182-3.939.122-5.801.567-.849.202-2.115.453-2.873.906-.951.568-1.081 1.898-1.977.792l-3.572 6.695c1.185-.428 3.603-2.243 4.898-2.055 1.891.275 2.279 3.006 2.304 4.421ZM74.951 18.567c-5.294.155-10.827 1.277-15.839 2.944-1.244.414-6.495 1.887-5.389 4.023.731 1.412 4.671-.583 5.862-.915 5.106-1.427 10.362-2.367 15.591-3.225 1.266-.208 5.561-.188 5.783-1.838.272-2.015-4.513-.991-6.008-.989Zm144.076 229.758c-2.87.349-5.625.219-8.497-.131-2.417-.294-4.879-1.279-7.284-1.279 0 2.561-.174 2.577 2.542 3.125 1.896.383 3.819.598 5.735.865 3.373.469 7.118 1.786 10.532 1.109-.082-.445-.344-3.446-.698-3.743-.199-.166-2.041.057-2.33.054ZM172.651 58.852c.803.508 2.647 2.536 3.603 2.572-.341-2.348-2.974-6.435-5.998-4.984-.741.355-2.298 2.127-1.593 2.908.375.418 3.005-.493 3.988-.496Zm-27.975 20.884.089-1.228c-1.109.65-2.483.956-3.271 2.002l2.839 1.253.343-2.027Zm87.381 62.326c5.243 1.826 10.048 4.265 13.907 8.405 3.336 3.58 4.903 9.887 5.717 14.58 2.015 11.612-1.873 22.375-4.436 33.483-1.3 5.635-3.242 11.058-5.059 16.547-1.588 4.794-2.948 9.814-5.139 14.372-1.858 3.865-4.231 7.675-5.865 11.684-.879 2.158-2.304 9.562-5.642 7.237-.911 2.369-1.132 2.167-.158 3.812.704 1.191 3.095 2.845 4.223 3.815 3.006 2.585 6.813 4.716 10.339 6.526 6.459 3.316 13.382 5.797 20.034 8.82 2.941 1.337 6.129 2.917 5.469 6.743-.552 3.208-2.418 5.641-5.328 7.068-2.733 1.34-6.641 2.375-9.647 2.795-1.784.25-2.193-.488-3.647-.744-1.618-.283-3.507.265-5.176.251-7.495-.065-14.056-1.941-20.113-6.263-2.164-1.545-5.349-5.736-8.182-5.736-1.447 0-1.142.875-2.415 1.389-1.572.633-4.28-.562-5.825-.843-3.291-.598-6.639-1.205-8.831-4.025-2.369-3.047-1.527-6.823-.509-10.207 1.148-3.815 3.08-7.686 3.9-11.559.2-.942.384-2.698.182-3.656-.316-1.488-1.826-2.375-1.871-3.985-.014-.49.691-1.136.814-1.642.272-1.11.23-2.262.342-3.392.2-2.016.662-3.947.981-5.94.725-4.533 2.154-8.578 3.538-12.946 1.342-4.239 2.619-7.394 5.214-11.065 1.344-1.901 5.838-8.674 3.643-10.623-3.003 5.869-6.516 10.446-11.113 15.118-3.516 3.574-6.953 8.378-11.354 10.923-4.838 2.799-10.751 4.445-16.094 5.925-2.541.703-4.649 2.264-7.389 2.553-2.969.312-5.99-.057-8.898-.715-.819-.185-3.179-1.436-3.92-1.357-1.091.118-2.661 2.053-3.858 2.408-2.915.865-4.905-.787-7.116-2.314-2.399-1.657-3.125-2.069-5.893-2.268-3.391-.244-6.689-1.433-10.024-2.161-5.865-1.28-10.849-3.874-16.179-6.589-6.11-3.111-11.337-7.402-15.942-12.472-6.77-7.452-16.199-28.103-5.14-35.334-6.51-.879-12.473-3.708-13.267-11.037-.414-3.836.366-8.085 1.336-11.782.443-1.688.97-3.366 1.475-5.036a3.44 3.44 0 0 0 .604-1.853c.233-.869-.103-1.302-1.01-1.298-1.716-1.995-3.005-3.755-3.351-6.587-.11-.897-.207-2.273.435-3.036a2.195 2.195 0 0 1 1.074-.615c1.005.057 1.289-.435.852-1.477.488-1.476-.236-2.626 1.603-3.242.59.125 1.176.262 1.76.409.746.339 1.231.093 1.457-.733 1.732-.674.933-1.671 3.287-.804a10.22 10.22 0 0 1 3.817 2.531c1.302-.831-1.658-5.966-1.757-7.605-.234-3.862 1.372-7.055 3.46-10.228 4.06-6.165 9.726-11.466 15.314-16.236 10.703-9.135 21.946-17.83 34.032-25.109-4.986-3.444-10.81-4.377-16.743-2.777-5.468 1.476-9.901 4.156-14.935 6.5-4.664 2.172-9.614 3.064-11.101-2.86-1.666-6.638 3.649-9.101 8.417-12.077-1.19-.884-5.11-.252-6.592-.148-3.302.233-6.46.974-9.668 1.63-1.54.314-2.953.243-4.477.551-2.267.458-4.633.97-6.926 1.622-5.456 1.552-10.87 3.907-15.584 7.081-4.074 2.742-6.901 6.613-10.184 10.179-3.743 4.065-7.33 8.065-12.88 9.553-2.599.697-5.648 1.33-7.49-.979-1.714-2.147-1.81-4.734-1.753-7.36.123-5.798 2.94-12.064 6.215-16.802 3.556-5.143 8.318-8.089 12.818-12.228-6.504.462-12.79 3.872-18.77 6.23-1.26.496-2.53 1.053-3.796 1.512-1.349.49-2.243.19-3.536.414-2.95.513-5.485 1.75-8.355-.223-5.43-3.73.01-11.32 3.749-13.648 5.207-3.244 10.505-5.974 16.242-8.288-3.106-3.35-.453-8.133 2.41-10.51 3.621-3.008 8.234-4.732 12.599-6.342 3.451-1.274 6.841-2.497 10.427-3.263 3.77-.806 8.177-2.036 12.002-1.918 3.587.11 6.768-.518 10.401-.619 3.023-.083 6.053-.011 9.075-.089 8.132-.209 16.295.337 24.242.918-6.297-18.316 35.181-12.66 44.03-10.267 8.042 2.174 17.256 4.697 24.011 9.856 2.862 2.185 5.58 4.67 8.119 7.22 3.746 3.761 5.82 8.687 7.801 13.55 5.026-2.45 9.831-5.118 15.33-6.332 5.233-1.155 10.593-2.72 15.856-3.594 4.001-.663 9.809-1.113 13.177 1.697 3.658 3.053 5.563 7.803 7.747 11.872 10.485-9.897 22.18-17.117 37.13-16.637 14.629.47 24.248 13.036 26.022 26.653 1.953 15.004-4.766 30.682-13.874 42.302-4.084 5.21-8.31 10.243-13.807 14.131-2.726 1.927-5.602 4.038-8.591 5.543-1.49.75-3.12 1.427-4.685 2.005-.706.26-1.433.522-2.167.698-2.097.506-1.69-.169-2.47 1.657-.633 1.483-.555 4.033-.826 5.661-.31 1.859-.494 3.745-.946 5.579-.783 3.18-1.599 6.282-2.58 9.387-1.857 5.877-4.356 11.8-7.418 17.161 2.597 1.122 6.232 1.235 9.007 1.575 3.003.367 6.01 1.14 9.13 2.008 6.25 1.738 11.835 3.205 17.779 5.808 6.171 2.702 11.67 6.736 17.611 9.947 5.464 2.953 10.987 6.652 16.061 10.196 1.207.844 1.955 1.577 2.916 2.645.983 1.091 1.296 1.304 2.47 2.25.53.426 2.071 2.575 2.676 2.654 1.083.143.917-.661 1.767-1.784 1.775-2.344 4.252-4.16 6.015-6.563 1.47-2.004 3.004-4.033 4.576-5.757 3.804-4.17 6.956-8.793 9.66-13.792 1.408-2.603 2.89-5.08 4.418-7.536 1.522-2.446 4.227-5.674 7.258-5.529-.244-1.245-1.018-1.453.318-2.214.86-.491 2.535.3 3.199.798 1.757 1.319 1.833 3.879 1.722 5.802-.285 4.955-1.327 9.846-2.78 14.531-1.746 5.632-3.935 10.601-6.324 15.977-1.901 4.282-4.263 9.945-8.994 11.899 3.177 4.514 1.651 8.191-.473 12.983-1.552 3.503-3.603 7.123-6.726 9.441-3.52 2.613-7.338.396-11.02-1.331-2.224-1.043-9.024-3.506-7.641-6.716-1.699-.226-2.767-1.453-4.313-1.831-1.637-.4-1.356.261-3.088.509-1.328.19-3.314-.992-4.565-1.416-2.088-.706-4.171-1.431-6.256-2.146-5.871-2.011-11.642-3.991-17.571-5.603-11.03-2.998-22.197-4.698-33.188-7.375-2.204-.537-4.394-1.055-6.688-1.485-.474-.088-2.932-.225-3.231-.729-.523-.884 1.085-5.83 1.223-6.838.906-6.618.61-13.862-.666-20.404-.53-2.72-2.897-6.241-2.877-8.896.014-1.781 1.601-3.725 2.532-5.339 2.304-3.988 4.718-8.297 6.425-12.448 2.613-6.35 4.213-13.518 5.368-20.318.601-3.546 1.3-7.389 1.464-10.975.125-2.734-.101-5.602.298-8.402-1.521.144-3.673.928-5.043.089-1.73-1.06-2.195-4.083-1.974-5.889-5.924 1.029-5.727-4.56-5.36-8.93-10.707 0 3.004-15.824 4.718-19.223.787-1.562.763.193.416-2.224-.153-1.062-.883-2.239-1.296-3.215a104.433 104.433 0 0 0-2.911-6.3 119.793 119.793 0 0 0-7.397-12.66c-2.443 1.693-4.645 3.697-6.685 5.848 1.309-3.405 5.308-7.623 3.597-11.488-1.585-3.584-6.879-3.336-10.006-2.68-8.497 1.781-16.645 4.377-24.74 7.381 2.508 1.43 6.346.326 8.838-.768 3.084-1.354 6.402-2.775 9.726-3.493 2.9-.625 6.708-.412 5.87 3.473-.679 3.148-3.774 6.18-5.817 8.533-4.499 5.185-10.141 9.199-15.683 13.21-5.958 4.311-11.698 8.996-17.731 13.182-10.905 7.569-22.631 14.147-33.898 21.211-5.855 3.67-12.489 6.625-18.839 9.345-6.984 2.993-13.681 6.197-20.928 8.561-4.024 1.313-8.013 2.394-11.967 3.888-2.479.936-6.795 2.811-8.433.032-3.326-5.645 8.71-13.07 12.009-16.521 2.275 2.198-8.946 10.389-8.067 13.59.69 2.515 3.359-.733 4.648-1.418 2.082-1.108 4.549-1.665 6.643-2.929 4.293-2.593 9.384-5.583 10.364-10.943-.682-.716-.674-1.377.026-1.983.311-.369.558-.773.74-1.214.305-.842.428-1.897.591-2.79.484-2.64-.73-5.112.404-7.695-6.617 4.987-12.977 10.62-19.258 16.02-5.634 4.842-11.513 11.183-13.584 18.409-.265.926-.706 1.976-.657 2.954.094 1.918.286 1.504 1.84 2.121s3.817.564 5.488.629c.952.037 5.206-.966 4.36 1.113-.487 1.199-3.436 1.153-4.492 1.264-2.65.278-4.087-.007-2.832 2.85.563 1.28 1.703 2.148 2.598 3.139 2.489 2.758 3.841 6.987 5.799 10.226 2.231 3.691 4.683 7.201 7.288 10.638 1.075 1.418 2.513 4.084 4.003 5.096 1.392.945-.246.867 2.066.483 1.008-.167 1.921-.819 2.885-1.053a417.324 417.324 0 0 0 17.647-4.694c7.623-2.205 15.623-4.086 22.897-7.261 6.516-2.845 12.983-6.233 19.567-9.114 1.923-.841 3.843-1.399 5.338-2.946 1.803-1.868 3.297-4.314 4.96-6.322 2.83-3.416 5.438-6.889 8.483-10.126 2.267-2.409 6.285-6.886 9.483-7.847 6.077-1.826 2.824 7.381 2.039 9.708 1.429.323 2.179-1.5 3.856-.976 2.007.628 2.215 3.284 2.466 4.948.067.443-.536 1.272-.353 1.667.063.135 1.372.906 1.625 1.263.917 1.297.737 2.874.389 4.273-1.798 7.247-8.191 12.538-12.892 17.884 2.103-.396 3.663-1.588 5.648-2.179 1.864-.555 3.737-.526 5.615-.685 1.967-.166 3.856-.898 5.868-.935 2.111-.039 4.132.559 6.226.796Z" fill="#000"/><path fill-rule="evenodd" clip-rule="evenodd" d="M9.707 76.881c-1.16.754-1.486 1.494-1.526 3.233-.016.713.033 3.373 1.035 3.273.94-.094.49-5.59.49-6.506Zm-5.989 4.334c.54-5.574 2.59-11.24 7.412-14.713 1.193-.859 2.542-.828 3.849-1.37.786-.326 2.027-1.839 2.918-1.66 3.283.66-.51 5-1.065 6.141-1.721 3.536-1.605 6.643-1.554 10.458.04 2.899.645 7.787-.824 10.41-1.566 2.795-4.964.98-6.86-.673-2.393-2.088-4.2-5.413-3.876-8.593ZM61.345 97.685c0 3.11 2.538 1.004 2.447-1.208-.132-3.257-2.565-1.251-2.447 1.208Zm13.491-17.193c-2.777 2.485-4.92 3.879-5.455 7.7-.405 2.893-.002 5.76.015 8.674.029 4.886-3.938 10.023-8.206 4.422-3.114-4.085-1.997-10.509.542-14.615 1.332-2.154 3.234-4.285 5.431-5.627 1.653-1.01 6.302-2.999 7.673-.554ZM36.049 155.797c-.322.757-1.078 3.851.464 3.152 1.362-.619.48-2.67-.464-3.152Zm-8.15-9.553c-.237-1.163-.14-8.457 1.88-7.91 1.586.429 1.848 4.163 2.494 5.462 2.406 4.838 7.93 7.851 9.835 12.845 2.126 5.577-4.302 5.751-7.713 3.492-4.039-2.674-6.376-9.222-6.495-13.889ZM22.949 116.339c.876-1.177.965-1.806.465-2.847-.639.691-.526 1.678-.465 2.847Zm.634 5.266c-4.57.509-4.798-7.867-4.016-10.743.623-2.291 1.963-4.752 3.342-6.618.279-.377 2.92-3.761 3.438-3.769 1.988-.031 1.442 2.202 1.227 3.034-.675 2.619-.942 4.809-.76 7.713.194 3.108 1.674 10.486-3.231 10.383ZM231.053 49.065c-6.534 5.45-12.737 11.351-19.842 16.119-3.476 2.333-7.11 4.397-10.579 6.768-1.767 1.208-3.57 2.289-5.53 3.177-1.731.784-2.863.886-1.426-.976.96-1.243 3.112-2.11 4.42-2.993 2.013-1.362 3.914-2.872 6.032-4.08 3.733-2.13 7.443-3.85 10.884-6.462 3.054-2.318 6.205-4.582 9.12-7.046 1.25-1.056 5.395-5.906 6.921-4.507ZM231.184 68.746c2.939 2.5-4.413 9.35-6.089 10.901-1.768 1.638-3.715 3.098-5.638 4.548-.677.511-4.37 3.93-5.307 3.654-1.849-.545.579-2.763 1.21-3.34 2.042-1.874 4.128-3.691 6.124-5.615 1.801-1.732 3.75-3.337 5.492-5.126 1.41-1.45 2.595-3.905 4.208-5.022ZM13.495 169.528c-.767-1.768-2.141.195-1.445 1.078.66.836 1.347-.738 1.445-1.078Zm-4.498-3.492c.41-2.6 1.361-4.045 3.813-1.826 1.685 1.525 5.074 5.862 4.753 8.226-.422 3.101-3.856 2.221-5.636.6-1.824-1.662-2.63-4.694-2.93-7ZM14.37 217.21c-3.004-.227-5.567-2.521-6.842-5.21-1.074-2.261-2.09-5.905 1.681-4.717 2.458.775 11.932 10.292 5.161 9.927ZM50.776 202.47c-2.322.526-4.618-.994-6.045-2.709-.889-1.069-2.956-4.813-1.914-6.354 1.452-2.15 3.643 2.171 4.4 3.026 1.186 1.34 5.064 3.902 3.559 6.037ZM52.867 144c-1.82-.84-3.51-1.851-4.241-3.857-.466-1.278-.857-5.11 1.21-5.092 2.39.021 7.865 8.565 3.03 8.949ZM40.109 104.137c2.436-.044 3.013 1.293 3.352 3.213.23 1.303 1.346 5.728.187 6.634-1.656 1.295-4.29-1.672-4.823-2.837-1.098-2.399.42-4.757 1.284-7.01ZM81.976 236.802c1.186.537 3.885 1.727 2.854 3.575-1.079 1.932-4.175.055-5.331-.79-.484-.353-3.56-2.667-3.432-3.443.272-1.649 4.512.503 5.909.658ZM3.814 116.139c.81 2.019 1.723 8.956-2.546 5.21-1.303-1.143-1.5-2.571-1.05-4.141.649-2.274 1.593-1.823 3.596-1.069ZM230.046 90.305c-.946-1.921 1.388-3.16 2.635-4.398.815-.81 4.239-5.195 5.361-4.948 2.309.51-6.861 8.49-7.996 9.346ZM40.078 229.459c2.227-.356 2.747 2.105 4.182 3.178.616.46 2.728.865 2.303 1.842-1.116 2.565-6.594-3.296-6.485-5.02ZM58.888 171.332c1.53-.637 5.95 2.787 4.68 4.267-1.896 2.213-4.572-3.056-4.68-4.267ZM91.16 220.876c-1.116.11-5.826-1.363-4.08-3.334 1.225-1.385 4.48 2.08 4.08 3.334ZM34.76 211.415c-1.108.44-5.104-.466-3.848-2.192 1.197-1.644 3.85.827 3.848 2.192ZM67.475 218.862c1.296-.133 2.232.644 2.454 1.959-1.62.23-2.12-.153-2.454-1.959ZM235.96 27.86l1.636.009-1.636-.008ZM227.372 141.151l-2.454.003 2.454-.003ZM115.788 8.542l-.114 2.441c.037-.815.075-1.628.114-2.44ZM369.196 146.847c.261.906-.121 1.056-1.148.45l1.148-.45ZM345.965 217.827l1.227.008-1.227-.008ZM268.266 152.349c-.686.52-1.368.593-2.044-.027l2.044.027ZM252.957 82.983ZM288.304 20.217c-.681 0-1.363 0-2.044-.002.682-.254 1.364-.17 2.044.002ZM88.332 11.94l-2.045.12 2.045-.12ZM105.098 12.07l-1.636-.14 1.636.14ZM114.095 12.714c-.545.203-1.09.323-1.636.003l1.636-.003ZM65.43 13.828c-.681.138-1.363.276-2.044.412.682-.136 1.363-.274 2.045-.412ZM253.368 179.39l-.056 1.22.056-1.22Z" fill="#000"/><path fill-rule="evenodd" clip-rule="evenodd" d="m28.001 146.441.023.813c-.009-.272-.015-.543-.023-.813ZM371.729 144.981l-2.045.011c.68-.505 1.362-.441 2.045-.011ZM231.87 142.101l-1.636-.269 1.636.269ZM82.197 236.74l-2.044-.396 2.044.396ZM219.825 120l-.037-1.22.037 1.22ZM90.376 12.076l-1.227-.151 1.227.15ZM157.443 2.015l-1.227-.37 1.227.37ZM206.107 276.382l.818.05-.818-.05ZM18.402 57.95l1.227.032-1.227-.032ZM292.803 20.614l-2.045-.143 2.045.143ZM77.29 18.71l-2.863.005 2.863-.006ZM270.496 102.508c.012.679.026 1.358.039 2.034-.012-.679-.024-1.357-.039-2.034ZM220.42 248.149l-1.636-.026c.548.007 1.092.017 1.636.026ZM278.49 32.621l2.453-.27c-.785.69-1.633.23-2.453.27ZM215.922 248.362l-1.227-.046 1.227.046ZM201.782 255.458l.062 2.034-.062-2.034ZM264.177 57.6l1.636-.152c-.498.383-1.082.16-1.636.152ZM85.469 165.817l1.636.298-1.636-.298ZM170.529 58.781c.681-.576 1.362-.514 2.045-.006-.682.001-1.363.004-2.045.006ZM144.94 79.322c.02-.271.039-.543.06-.814-.019.272-.039.543-.06.814ZM263.964 71.593l.017 1.627-.017-1.627ZM83.54 156.623c.898.302 2.702 1.216 3.748 1.095.837-.097 1.527-1.109 2.334-1.108 2.174.003 1.77 2.502.72 3.844-2.84 3.629-9.186-.306-6.802-3.831ZM92.412 143.593c2.963.761 1.487 7.247-1.004 7.692-2.934.526-3.445-4.747-2.866-6.654 1.51.893.575 4.076 2.478 3.196 1.21-.56 1.026-3.149 1.392-4.234Z" fill="#000"/></svg></svg>